<svg width="141" height="35" viewBox="0 0 141 35" fill="none" xmlns="http://www.w3.org/2000/svg">
<path d="M0.1 34L11.15 1.55H18.55L29.15 34H22.95L20.7 27H8.65L6.35 34H0.1ZM10.15 22.55H19.3L14.75 8.6L10.15 22.55Z" fill="#F87A01"/>
<path d="M46.7988 34.7C44.1488 34.7 41.7572 34 39.6238 32.6C37.4905 31.2 35.7905 29.25 34.5238 26.75C33.2738 24.2333 32.6488 21.3 32.6488 17.95C32.6488 15.3 33.0322 12.925 33.7988 10.825C34.5822 8.725 35.6655 6.93333 37.0488 5.45C38.4322 3.96666 40.0572 2.84166 41.9238 2.075C43.7905 1.29166 45.8155 0.899997 47.9988 0.899997C51.0322 0.899997 53.5738 1.55833 55.6238 2.875C57.6905 4.19167 59.2988 6.26667 60.4488 9.1L54.3988 10.5C53.5488 9.11667 52.5655 8.06667 51.4488 7.35C50.3488 6.61667 49.0988 6.25 47.6988 6.25C46.0988 6.25 44.6405 6.725 43.3238 7.675C42.0072 8.60833 40.9572 9.95 40.1738 11.7C39.3905 13.45 38.9988 15.5333 38.9988 17.95C38.9988 20.2167 39.3405 22.2 40.0238 23.9C40.7238 25.6 41.6988 26.925 42.9488 27.875C44.1988 28.825 45.6488 29.3 47.2988 29.3C48.6988 29.3 49.9488 28.9917 51.0488 28.375C52.1655 27.7417 53.0405 26.8417 53.6738 25.675C54.3238 24.5083 54.6488 23.1 54.6488 21.45H55.9488C55.9488 24.15 55.6238 26.4917 54.9738 28.475C54.3405 30.4583 53.3488 31.9917 51.9988 33.075C50.6488 34.1583 48.9155 34.7 46.7988 34.7ZM55.4988 34L54.6488 26.85V21.25L47.3488 21.1V17.35H60.2988V34H55.4988ZM68.7867 34V1.55H80.7867C84.6701 1.55 87.6451 2.45833 89.7117 4.275C91.7951 6.09167 92.8367 8.5 92.8367 11.5C92.8367 14.45 91.7951 16.8333 89.7117 18.65C87.6451 20.45 84.6701 21.35 80.7867 21.35H74.6867V34H68.7867ZM86.3367 34L77.7367 18.8H84.0367L94.0367 34H86.3367ZM74.6867 17.4H80.1867C82.3534 17.4 83.9951 16.9083 85.1117 15.925C86.2284 14.925 86.7867 13.6333 86.7867 12.05C86.7867 10.4333 86.2784 9.13333 85.2617 8.15C84.2451 7.15 82.7534 6.65 80.7867 6.65H74.6867V17.4ZM100.964 34V1.55H106.864V34H100.964ZM127.999 34.7C125.149 34.7 122.665 34.025 120.549 32.675C118.449 31.3083 116.815 29.3583 115.649 26.825C114.482 24.2917 113.899 21.25 113.899 17.7C113.899 14.0333 114.499 10.9583 115.699 8.475C116.915 5.975 118.582 4.09167 120.699 2.825C122.832 1.54166 125.265 0.899997 127.999 0.899997C131.782 0.899997 134.732 1.81666 136.849 3.65C138.982 5.48333 140.349 7.86666 140.949 10.8L134.649 11.95C134.132 10.25 133.307 8.875 132.174 7.825C131.04 6.775 129.649 6.25 127.999 6.25C126.549 6.25 125.24 6.675 124.074 7.525C122.907 8.35833 121.974 9.625 121.274 11.325C120.59 13.025 120.249 15.15 120.249 17.7C120.249 20.1 120.549 22.1667 121.149 23.9C121.765 25.6333 122.649 26.9667 123.799 27.9C124.949 28.8333 126.349 29.3 127.999 29.3C130.115 29.3 131.749 28.7417 132.899 27.625C134.065 26.4917 134.649 25.05 134.649 23.3H140.949C140.949 25.7167 140.424 27.775 139.374 29.475C138.34 31.1583 136.857 32.45 134.924 33.35C132.99 34.25 130.682 34.7 127.999 34.7Z" fill="#FFFF"/>
</svg>
